<?xml version="1.0" standalone="no"?>
<!DOCTYPE svg PUBLIC "-//W3C//DTD SVG 20010904//EN"
 "http://www.w3.org/TR/2001/REC-SVG-20010904/DTD/svg10.dtd">
<svg version="1.0" xmlns="http://www.w3.org/2000/svg"
 width="512.000000pt" height="512.000000pt" viewBox="0 0 512.000000 512.000000"
 preserveAspectRatio="xMidYMid meet">

<g transform="translate(0.000000,512.000000) scale(0.100000,-0.100000)"
fill="#e32020" stroke="none">
<path d="M3355 5060 c-157 -100 -271 -772 -237 -1391 18 -319 47 -534 96 -711
46 -164 98 -267 149 -299 44 -27 71 -24 111 12 87 76 162 331 203 691 21 190
24 707 5 903 -41 420 -134 734 -235 795 -40 25 -54 25 -92 0z"/>
<path d="M4844 4758 c-327 -309 -944 -1642 -944 -2040 0 -112 48 -115 150 -9
279 288 776 1308 894 1833 57 252 20 330 -100 216z"/>
<path d="M1585 4498 c-93 -33 -127 -92 -133 -229 -6 -147 24 -276 114 -489
136 -323 424 -720 689 -950 194 -168 360 -259 492 -268 91 -6 115 0 163 44 57
52 74 116 67 254 -18 348 -315 888 -702 1275 -267 267 -546 414 -690 363z"/>
<path d="M619 3090 c-85 -11 -189 -46 -242 -81 -89 -58 -126 -129 -126 -239
-2 -329 508 -764 1100 -940 176 -52 309 -73 464 -73 266 0 416 66 483 211 21
47 24 65 20 131 -15 252 -309 562 -738 776 -337 169 -696 249 -961 215z"/>
<path d="M3560 2154 c-146 -18 -272 -65 -347 -128 -103 -89 -190 -290 -247
-572 -47 -236 -56 -392 -26 -495 26 -91 96 -144 230 -176 108 -26 424 -26 530
0 89 22 200 73 254 118 69 58 129 168 151 277 l7 32 -155 0 -156 0 -15 -54
c-35 -118 -98 -150 -296 -150 -140 0 -203 18 -236 69 -32 48 -28 187 7 302
l10 33 442 2 442 3 12 55 c44 189 55 405 27 499 -22 77 -73 121 -176 156 -76
25 -98 28 -253 30 -93 2 -186 1 -205 -1z m272 -254 c20 -6 47 -23 59 -38 20
-25 21 -35 16 -122 -4 -52 -9 -105 -13 -117 l-6 -23 -284 0 c-323 0 -297 -9
-268 91 56 188 127 232 359 223 55 -2 117 -8 137 -14z"/>
<path d="M1270 1464 c-14 -2 -63 -9 -110 -15 -551 -70 -1010 -405 -1037 -754
-18 -237 146 -448 441 -565 193 -77 377 -105 636 -97 194 6 336 30 515 87 329
105 598 316 692 542 23 55 27 78 27 178 1 113 0 116 -36 190 -64 129 -161 222
-314 299 -184 92 -352 130 -609 136 -99 2 -191 2 -205 -1z"/>
</g>
</svg>
